<svg id="kity_svg_6" xmlns="http://www.w3.org/2000/svg" xmlns:xlink="http://www.w3.org/1999/xlink" version="1.1" width="1042" height="706" style="background: rgb(251, 251, 251); visibility: visible;" viewBox="0 0 1042 706"><defs id="kity_defs_7"><linearGradient id="kity_linearGradient_17" x1="0" y1="0" x2="0" y2="1"><stop id="kity_stop_18" offset="0" stop-color="rgb(255, 255, 255)"></stop><stop id="kity_stop_19" offset="1" stop-color="rgb(204, 204, 204)"></stop></linearGradient><marker id="kity_marker_2" orient="auto" refX="6" refY="0" viewBox="-7 -7 14 14" markerWidth="7" markerHeight="7" markerUnits="userSpaceOnUse"><path id="kity_path_3" fill="rgb(115, 161, 191)" stroke="none" d="M6,0A6,6,0,1,1,-6,0A6,6,0,1,1,6,0"></path></marker></defs><g id="kity_g_8"><g id="minder1" text-rendering="optimize-speed"><g id="minder_connect_group1"><path id="kity_path_31" fill="none" stroke="rgb(115, 161, 191)" stroke-width="1" d="M182,365.5A279.5,308,0,0,1,461.5,57.5"></path><path id="kity_path_33" fill="none" stroke="rgb(115, 161, 191)" stroke-width="1" d="M546.5,57.5C566.5,57.5,566.5,31.5,586.5,31.5"></path><path id="kity_path_35" fill="none" stroke="rgb(115, 161, 191)" stroke-width="1" d="M698.5,-8.5C718.5,-8.5,718.5,-8.5,738.5,-8.5" display="none"></path><path id="kity_path_37" fill="none" stroke="rgb(115, 161, 191)" stroke-width="1" d="M546.5,57.5C566.5,57.5,566.5,83.5,586.5,83.5"></path><path id="kity_path_51" fill="none" stroke="rgb(115, 161, 191)" stroke-width="1" d="M182,365.5A279.5,168,0,0,1,461.5,197.5"></path><path id="kity_path_53" fill="none" stroke="rgb(115, 161, 191)" stroke-width="1" d="M546.5,197.5C566.5,197.5,566.5,145.5,586.5,145.5"></path><path id="kity_path_55" fill="none" stroke="rgb(115, 161, 191)" stroke-width="1" d="M546.5,197.5C566.5,197.5,566.5,197.5,586.5,197.5"></path><path id="kity_path_57" fill="none" stroke="rgb(115, 161, 191)" stroke-width="1" d="M546.5,197.5C566.5,197.5,566.5,249.5,586.5,249.5"></path><path id="kity_path_59" fill="none" stroke="rgb(115, 161, 191)" stroke-width="1" d="M182,365.5A279.5,28,0,0,1,461.5,337.5"></path><path id="kity_path_61" fill="none" stroke="rgb(115, 161, 191)" stroke-width="1" d="M546.5,337.5C566.5,337.5,566.5,311.5,586.5,311.5"></path><path id="kity_path_63" fill="none" stroke="rgb(115, 161, 191)" stroke-width="1" d="M546.5,337.5C566.5,337.5,566.5,363.5,586.5,363.5"></path><path id="kity_path_65" fill="none" stroke="rgb(115, 161, 191)" stroke-width="1" d="M182,365.5A279.5,86,0,0,0,461.5,451.5"></path><path id="kity_path_67" fill="none" stroke="rgb(115, 161, 191)" stroke-width="1" d="M546.5,451.5C566.5,451.5,566.5,425.5,586.5,425.5"></path><path id="kity_path_69" fill="none" stroke="rgb(115, 161, 191)" stroke-width="1" d="M546.5,451.5C566.5,451.5,566.5,477.5,586.5,477.5"></path><path id="kity_path_71" fill="none" stroke="rgb(115, 161, 191)" stroke-width="1" d="M182,365.5A279.5,176,0,0,0,461.5,541.5"></path><path id="kity_path_73" fill="none" stroke="rgb(115, 161, 191)" stroke-width="1" d="M546.5,541.5C566.5,541.5,566.5,541.5,586.5,541.5"></path><path id="kity_path_75" fill="none" stroke="rgb(115, 161, 191)" stroke-width="1" d="M1022.5,945.5C1042.5,945.5,1042.5,867.5,1062.5,867.5" display="none"></path><path id="kity_path_77" fill="none" stroke="rgb(115, 161, 191)" stroke-width="1" d="M1022.5,945.5C1042.5,945.5,1042.5,919.5,1062.5,919.5" display="none"></path><path id="kity_path_79" fill="none" stroke="rgb(115, 161, 191)" stroke-width="1" d="M1022.5,945.5C1042.5,945.5,1042.5,971.5,1062.5,971.5" display="none"></path><path id="kity_path_81" fill="none" stroke="rgb(115, 161, 191)" stroke-width="1" d="M1022.5,945.5C1042.5,945.5,1042.5,1023.5,1062.5,1023.5" display="none"></path><path id="kity_path_83" fill="none" stroke="rgb(115, 161, 191)" stroke-width="1" d="M182,365.5A279.5,242,0,0,0,461.5,607.5"></path><path id="kity_path_85" fill="none" stroke="rgb(115, 161, 191)" stroke-width="1" d="M574.5,607.5C594.5,607.5,594.5,527.5,614.5,527.5" display="none"></path><path id="kity_path_87" fill="none" stroke="rgb(115, 161, 191)" stroke-width="1" d="M574.5,607.5C594.5,607.5,594.5,633.5,614.5,633.5" display="none"></path><path id="kity_path_89" fill="none" stroke="rgb(115, 161, 191)" stroke-width="1" d="M182,365.5A279.5,308,0,0,0,461.5,673.5"></path><path id="kity_path_91" fill="none" stroke="rgb(115, 161, 191)" stroke-width="1" d="M574.5,776.5C594.5,776.5,594.5,724.5,614.5,724.5" display="none"></path><path id="kity_path_93" fill="none" stroke="rgb(115, 161, 191)" stroke-width="1" d="M574.5,776.5C594.5,776.5,594.5,776.5,614.5,776.5" display="none"></path><path id="kity_path_95" fill="none" stroke="rgb(115, 161, 191)" stroke-width="1" d="M574.5,776.5C594.5,776.5,594.5,828.5,614.5,828.5" display="none"></path><path id="kity_path_306" fill="none" stroke="rgb(115, 161, 191)" stroke-width="1" d="M722.5,-510.5C742.5,-510.5,742.5,-640.5,762.5,-640.5" display="none"></path><path id="kity_path_307" fill="none" stroke="rgb(115, 161, 191)" stroke-width="1" d="M722.5,-510.5C742.5,-510.5,742.5,-588.5,762.5,-588.5" display="none"></path><path id="kity_path_308" fill="none" stroke="rgb(115, 161, 191)" stroke-width="1" d="M722.5,-510.5C742.5,-510.5,742.5,-536.5,762.5,-536.5" display="none"></path><path id="kity_path_309" fill="none" stroke="rgb(115, 161, 191)" stroke-width="1" d="M722.5,-510.5C742.5,-510.5,742.5,-484.5,762.5,-484.5" display="none"></path><path id="kity_path_310" fill="none" stroke="rgb(115, 161, 191)" stroke-width="1" d="M722.5,-510.5C742.5,-510.5,742.5,-432.5,762.5,-432.5" display="none"></path><path id="kity_path_311" fill="none" stroke="rgb(115, 161, 191)" stroke-width="1" d="M722.5,-510.5C742.5,-510.5,742.5,-380.5,762.5,-380.5" display="none"></path><path id="kity_path_409" fill="none" stroke="rgb(115, 161, 191)" stroke-width="1" d="M878.5,-640.5C898.5,-640.5,898.5,-640.5,918.5,-640.5" display="none"></path><path id="kity_path_417" fill="none" stroke="rgb(115, 161, 191)" stroke-width="1" d="M854.5,-588.5C874.5,-588.5,874.5,-588.5,894.5,-588.5" display="none"></path><path id="kity_path_425" fill="none" stroke="rgb(115, 161, 191)" stroke-width="1" d="M938.5,-536.5C958.5,-536.5,958.5,-536.5,978.5,-536.5" display="none"></path><path id="kity_path_433" fill="none" stroke="rgb(115, 161, 191)" stroke-width="1" d="M878.5,-484.5C898.5,-484.5,898.5,-484.5,918.5,-484.5" display="none"></path><path id="kity_path_441" fill="none" stroke="rgb(115, 161, 191)" stroke-width="1" d="M866.5,-432.5C886.5,-432.5,886.5,-432.5,906.5,-432.5" display="none"></path><path id="kity_path_457" fill="none" stroke="rgb(115, 161, 191)" stroke-width="1" d="M902.5,-380.5C922.5,-380.5,922.5,-380.5,942.5,-380.5" display="none"></path><path id="kity_path_483" fill="none" stroke="rgb(115, 161, 191)" stroke-width="1" d="M686.5,-219.5C706.5,-219.5,706.5,-219.5,726.5,-219.5" display="none"></path><path id="kity_path_485" fill="none" stroke="rgb(115, 161, 191)" stroke-width="1" d="M710.5,-14.5C730.5,-14.5,730.5,-14.5,750.5,-14.5" display="none"></path><path id="kity_path_499" fill="none" stroke="rgb(115, 161, 191)" stroke-width="1" d="M698.5,172.5C718.5,172.5,718.5,172.5,738.5,172.5" display="none"></path><path id="kity_path_516" fill="none" stroke="rgb(115, 161, 191)" stroke-width="1" d="M698.5,343.5C718.5,343.5,718.5,343.5,738.5,343.5" display="none"></path><path id="kity_path_527" fill="none" stroke="rgb(115, 161, 191)" stroke-width="1" d="M674.5,476.5C694.5,476.5,694.5,476.5,714.5,476.5" display="none"></path><path id="kity_path_541" fill="none" stroke="rgb(115, 161, 191)" stroke-width="1" d="M698.5,646.5C718.5,646.5,718.5,646.5,738.5,646.5" display="none"></path><path id="kity_path_555" fill="none" stroke="rgb(115, 161, 191)" stroke-width="1" d="M698.5,779.5C718.5,779.5,718.5,779.5,738.5,779.5" display="none"></path></g><g id="minder_node1"><path id="node_outline1" fill="rgb(115, 161, 191)" stroke="rgb(115, 161, 191)" d="M25.5,345.5h313a5,5,0,0,1,5,5v30a5,5,0,0,1,-5,5h-313a5,5,0,0,1,-5,-5v-30a5,5,0,0,1,5,-5z" stroke-width="3"></path><g id="node_text1" fill="white"><text id="kity_text_22" text-rendering="inherit" font-size="16" dy=".8em" y="357.5" x="44.5">AWS架构完善五大支柱之卓越操作支柱</text></g></g><g id="kity_g_14" display="none"><path id="kity_path_15" fill="rgba(0, 92, 153, 0.5)" stroke="none" d="M586.5,98.5h124v15h-124z"></path><path id="kity_path_16" fill="none" stroke="rgb(0, 76, 128)" d="M586.5,113.5L710.5,113.5" stroke-width="1"></path></g><g id="minder_node2"><g id="node_expander10" style="cursor: pointer;"><path id="kity_path_223" fill="white" stroke="gray" d="M462.5,57.5A6,6,0,1,1,450.5,57.5A6,6,0,1,1,462.5,57.5"></path><path id="kity_path_224" fill="none" stroke="gray" d="M452,57.5L461,57.5"></path></g><path id="node_outline11" fill="rgb(238, 243, 246)" stroke="rgb(115, 161, 191)" d="M466.5,44.5h77a3,3,0,0,1,3,3v20a3,3,0,0,1,-3,3h-77a3,3,0,0,1,-3,-3v-20a3,3,0,0,1,3,-3z" stroke-width="1"></path><g id="node_text11" fill="black"><text id="kity_text_115" text-rendering="inherit" font-size="14" dy=".8em" y="50.5" x="483.5">1. 前言</text></g></g><g id="minder_node3"><g id="node_expander2" style="cursor: pointer;"><path id="kity_path_199" fill="white" stroke="gray" d="M586.5,31.5A6,6,0,1,1,574.5,31.5A6,6,0,1,1,586.5,31.5"></path><path id="kity_path_200" fill="none" stroke="gray" d="M576,31.5L585,31.5M580.5,27L580.5,36"></path></g><path id="node_outline3" fill="none" stroke="none" d="M591.5,20.5h102a5,5,0,0,1,5,5v12a5,5,0,0,1,-5,5h-102a5,5,0,0,1,-5,-5v-12a5,5,0,0,1,5,-5z" stroke-width="3"></path><g id="node_text3" fill="black"><text id="kity_text_99" text-rendering="inherit" font-size="12" dy=".8em" y="25.5" x="596.5">1.1 卓越操作定义</text></g></g><g id="minder_node4" display="none"><g id="node_expander1" style="cursor: pointer;" display="none"><path id="kity_path_196" fill="white" stroke="gray" d="M738.5,31.5A6,6,0,1,1,726.5,31.5A6,6,0,1,1,738.5,31.5"></path><path id="kity_path_197" fill="none" stroke="gray"></path></g><path id="node_outline2" fill="none" stroke="none" d="M733.5,-33.5h1904a5,5,0,0,1,5,5v120a5,5,0,0,1,-5,5h-1904a5,5,0,0,1,-5,-5v-120a5,5,0,0,1,5,-5z" stroke-width="3"></path><g id="node_text2" fill="black"><text id="kity_text_97" text-rendering="inherit" font-size="12" dy=".8em" y="-28.5" x="738.5">卓越操作支柱是[AWS架构完善框架的五大支柱](https://www.jianshu.com/p/c6675eff8b52)之一，侧重于运行和监测系统以提供业务价值，并不断改进流程和程序。关键主题包括：管理和自动化变更、响应事件以及定义标准以成功管理日常操作。</text><text id="kity_text_300" text-rendering="inherit" font-size="12" dy=".8em" y="-10.5" x="738.5"></text><text id="kity_text_301" text-rendering="inherit" font-size="12" dy=".8em" y="7.5" x="738.5"></text><text id="kity_text_302" text-rendering="inherit" font-size="12" dy=".8em" y="25.5" x="738.5">这份[白皮书](https://d1.awsstatic-china.com/whitepapers/architecture/AWS-Operational-Excellence-Pillar.pdf)阐述了AWS架构完善框架五大支柱中的卓越操作支柱，它讨论了操作**筹备**、操作**实施**、操作**演进**三个方面的概念、设计原则和最佳实践，指导架构师、软件开发人员在基于AWS平台设计、交付和维护软件时应用这些最佳实践。</text><text id="kity_text_303" text-rendering="inherit" font-size="12" dy=".8em" y="43.5" x="738.5"></text><text id="kity_text_304" text-rendering="inherit" font-size="12" dy=".8em" y="61.5" x="738.5"></text><text id="kity_text_305" text-rendering="inherit" font-size="12" dy=".8em" y="79.5" x="738.5">下面的内容是我阅读AWS架构完善卓越操作白皮书时整理的笔记和心得。</text></g></g><g id="minder_node5" opacity="1"><g id="node_expander9" style="cursor: pointer;"><path id="kity_path_220" fill="white" stroke="gray" d="M586.5,83.5A6,6,0,1,1,574.5,83.5A6,6,0,1,1,586.5,83.5"></path><path id="kity_path_221" fill="none" stroke="gray" d="M576,83.5L585,83.5M580.5,79L580.5,88"></path></g><path id="node_outline10" fill="none" stroke="none" d="M591.5,72.5h126a5,5,0,0,1,5,5v12a5,5,0,0,1,-5,5h-126a5,5,0,0,1,-5,-5v-12a5,5,0,0,1,5,-5z" stroke-width="3"></path><g id="node_text10" fill="black"><text id="kity_text_113" text-rendering="inherit" font-size="12" dy=".8em" y="77.5" x="596.5">1.2 卓越操作设计原则</text></g></g><g id="minder_node12"><g id="node_expander14" style="cursor: pointer;"><path id="kity_path_235" fill="white" stroke="gray" d="M462.5,197.5A6,6,0,1,1,450.5,197.5A6,6,0,1,1,462.5,197.5"></path><path id="kity_path_236" fill="none" stroke="gray" d="M452,197.5L461,197.5"></path></g><path id="node_outline15" fill="rgb(238, 243, 246)" stroke="rgb(115, 161, 191)" d="M466.5,184.5h77a3,3,0,0,1,3,3v20a3,3,0,0,1,-3,3h-77a3,3,0,0,1,-3,-3v-20a3,3,0,0,1,3,-3z" stroke-width="1"></path><g id="node_text15" fill="black"><text id="kity_text_123" text-rendering="inherit" font-size="14" dy=".8em" y="190.5" x="483.5">2. 筹备</text></g></g><g id="minder_node13" opacity="1"><g id="node_expander11" style="cursor: pointer;"><path id="kity_path_226" fill="white" stroke="gray" d="M586.5,145.5A6,6,0,1,1,574.5,145.5A6,6,0,1,1,586.5,145.5"></path><path id="kity_path_227" fill="none" stroke="gray" d="M576,145.5L585,145.5M580.5,141L580.5,150"></path></g><path id="node_outline12" fill="none" stroke="none" d="M591.5,134.5h90a5,5,0,0,1,5,5v12a5,5,0,0,1,-5,5h-90a5,5,0,0,1,-5,-5v-12a5,5,0,0,1,5,-5z" stroke-width="3"></path><g id="node_text12" fill="black"><text id="kity_text_117" text-rendering="inherit" font-size="12" dy=".8em" y="139.5" x="596.5">2.1 确定优先级</text></g></g><g id="minder_node14"><g id="node_expander12" style="cursor: pointer;"><path id="kity_path_229" fill="white" stroke="gray" d="M586.5,197.5A6,6,0,1,1,574.5,197.5A6,6,0,1,1,586.5,197.5"></path><path id="kity_path_230" fill="none" stroke="gray" d="M576,197.5L585,197.5M580.5,193L580.5,202"></path></g><path id="node_outline13" fill="none" stroke="none" d="M591.5,186.5h114a5,5,0,0,1,5,5v12a5,5,0,0,1,-5,5h-114a5,5,0,0,1,-5,-5v-12a5,5,0,0,1,5,-5z" stroke-width="3"></path><g id="node_text13" fill="black"><text id="kity_text_119" text-rendering="inherit" font-size="12" dy=".8em" y="191.5" x="596.5">2.2 设计时考虑操作</text></g></g><g id="minder_node15" opacity="1"><g id="node_expander13" style="cursor: pointer;"><path id="kity_path_232" fill="white" stroke="gray" d="M586.5,249.5A6,6,0,1,1,574.5,249.5A6,6,0,1,1,586.5,249.5"></path><path id="kity_path_233" fill="none" stroke="gray" d="M576,249.5L585,249.5M580.5,245L580.5,254"></path></g><path id="node_outline14" fill="none" stroke="none" d="M591.5,238.5h102a5,5,0,0,1,5,5v12a5,5,0,0,1,-5,5h-102a5,5,0,0,1,-5,-5v-12a5,5,0,0,1,5,-5z" stroke-width="3"></path><g id="node_text14" fill="black"><text id="kity_text_121" text-rendering="inherit" font-size="12" dy=".8em" y="243.5" x="596.5">2.3 就绪程度评估</text></g></g><g id="minder_node16"><g id="node_expander17" style="cursor: pointer;"><path id="kity_path_244" fill="white" stroke="gray" d="M462.5,337.5A6,6,0,1,1,450.5,337.5A6,6,0,1,1,462.5,337.5"></path><path id="kity_path_245" fill="none" stroke="gray" d="M452,337.5L461,337.5"></path></g><path id="node_outline18" fill="rgb(238, 243, 246)" stroke="rgb(115, 161, 191)" d="M466.5,324.5h77a3,3,0,0,1,3,3v20a3,3,0,0,1,-3,3h-77a3,3,0,0,1,-3,-3v-20a3,3,0,0,1,3,-3z" stroke-width="1"></path><g id="node_text18" fill="black"><text id="kity_text_129" text-rendering="inherit" font-size="14" dy=".8em" y="330.5" x="483.5">3. 操作</text></g></g><g id="minder_node17"><g id="node_expander15" style="cursor: pointer;"><path id="kity_path_238" fill="white" stroke="gray" d="M586.5,311.5A6,6,0,1,1,574.5,311.5A6,6,0,1,1,586.5,311.5"></path><path id="kity_path_239" fill="none" stroke="gray" d="M576,311.5L585,311.5M580.5,307L580.5,316"></path></g><path id="node_outline16" fill="none" stroke="none" d="M591.5,300.5h102a5,5,0,0,1,5,5v12a5,5,0,0,1,-5,5h-102a5,5,0,0,1,-5,-5v-12a5,5,0,0,1,5,-5z" stroke-width="3"></path><g id="node_text16" fill="black"><text id="kity_text_125" text-rendering="inherit" font-size="12" dy=".8em" y="305.5" x="596.5">3.1 洞察运行情况</text></g></g><g id="minder_node18"><g id="node_expander16" style="cursor: pointer;"><path id="kity_path_241" fill="white" stroke="gray" d="M586.5,363.5A6,6,0,1,1,574.5,363.5A6,6,0,1,1,586.5,363.5"></path><path id="kity_path_242" fill="none" stroke="gray" d="M576,363.5L585,363.5M580.5,359L580.5,368"></path></g><path id="node_outline17" fill="none" stroke="none" d="M591.5,352.5h78a5,5,0,0,1,5,5v12a5,5,0,0,1,-5,5h-78a5,5,0,0,1,-5,-5v-12a5,5,0,0,1,5,-5z" stroke-width="3"></path><g id="node_text17" fill="black"><text id="kity_text_127" text-rendering="inherit" font-size="12" dy=".8em" y="357.5" x="596.5">3.2 响应事件</text></g></g><g id="minder_node19"><g id="node_expander20" style="cursor: pointer;"><path id="kity_path_253" fill="white" stroke="gray" d="M462.5,451.5A6,6,0,1,1,450.5,451.5A6,6,0,1,1,462.5,451.5"></path><path id="kity_path_254" fill="none" stroke="gray" d="M452,451.5L461,451.5"></path></g><path id="node_outline21" fill="rgb(238, 243, 246)" stroke="rgb(115, 161, 191)" d="M466.5,438.5h77a3,3,0,0,1,3,3v20a3,3,0,0,1,-3,3h-77a3,3,0,0,1,-3,-3v-20a3,3,0,0,1,3,-3z" stroke-width="1"></path><g id="node_text21" fill="black"><text id="kity_text_135" text-rendering="inherit" font-size="14" dy=".8em" y="444.5" x="483.5">4. 演进</text></g></g><g id="minder_node20"><g id="node_expander18" style="cursor: pointer;"><path id="kity_path_247" fill="white" stroke="gray" d="M586.5,425.5A6,6,0,1,1,574.5,425.5A6,6,0,1,1,586.5,425.5"></path><path id="kity_path_248" fill="none" stroke="gray" d="M576,425.5L585,425.5M580.5,421L580.5,430"></path></g><path id="node_outline19" fill="none" stroke="none" d="M591.5,414.5h102a5,5,0,0,1,5,5v12a5,5,0,0,1,-5,5h-102a5,5,0,0,1,-5,-5v-12a5,5,0,0,1,5,-5z" stroke-width="3"></path><g id="node_text19" fill="black"><text id="kity_text_131" text-rendering="inherit" font-size="12" dy=".8em" y="419.5" x="596.5">4.1 从经验中学习</text></g></g><g id="minder_node21"><g id="node_expander19" style="cursor: pointer;"><path id="kity_path_250" fill="white" stroke="gray" d="M586.5,477.5A6,6,0,1,1,574.5,477.5A6,6,0,1,1,586.5,477.5"></path><path id="kity_path_251" fill="none" stroke="gray" d="M576,477.5L585,477.5M580.5,473L580.5,482"></path></g><path id="node_outline20" fill="none" stroke="none" d="M591.5,466.5h102a5,5,0,0,1,5,5v12a5,5,0,0,1,-5,5h-102a5,5,0,0,1,-5,-5v-12a5,5,0,0,1,5,-5z" stroke-width="3"></path><g id="node_text20" fill="black"><text id="kity_text_133" text-rendering="inherit" font-size="12" dy=".8em" y="471.5" x="596.5">4.2 分享学习收获</text></g></g><g id="minder_node22"><g id="node_expander26" style="cursor: pointer;"><path id="kity_path_271" fill="white" stroke="gray" d="M462.5,541.5A6,6,0,1,1,450.5,541.5A6,6,0,1,1,462.5,541.5"></path><path id="kity_path_272" fill="none" stroke="gray" d="M452,541.5L461,541.5"></path></g><path id="node_outline27" fill="rgb(238, 243, 246)" stroke="rgb(115, 161, 191)" d="M466.5,528.5h77a3,3,0,0,1,3,3v20a3,3,0,0,1,-3,3h-77a3,3,0,0,1,-3,-3v-20a3,3,0,0,1,3,-3z" stroke-width="1"></path><g id="node_text27" fill="black"><text id="kity_text_147" text-rendering="inherit" font-size="14" dy=".8em" y="534.5" x="483.5">5. 总结</text></g></g><g id="minder_node23"><g id="node_expander25" style="cursor: pointer;"><path id="kity_path_268" fill="white" stroke="gray" d="M586.5,541.5A6,6,0,1,1,574.5,541.5A6,6,0,1,1,586.5,541.5"></path><path id="kity_path_269" fill="none" stroke="gray" d="M576,541.5L585,541.5M580.5,537L580.5,546"></path></g><path id="node_outline26" fill="none" stroke="none" d="M591.5,530.5h426a5,5,0,0,1,5,5v12a5,5,0,0,1,-5,5h-426a5,5,0,0,1,-5,-5v-12a5,5,0,0,1,5,-5z" stroke-width="3"></path><g id="node_text26" fill="black"><text id="kity_text_145" text-rendering="inherit" font-size="12" dy=".8em" y="535.5" x="596.5">以上筹备、操作、与演进三部分内容可总结提炼出以下**卓越操作最佳实践**：</text></g></g><g id="minder_node24" display="none"><g id="node_expander21" style="cursor: pointer;" display="none"><path id="kity_path_256" fill="white" stroke="gray" d="M1062.5,451.5A6,6,0,1,1,1050.5,451.5A6,6,0,1,1,1062.5,451.5"></path><path id="kity_path_257" fill="none" stroke="gray"></path></g><path id="node_outline22" fill="none" stroke="none" d="M1057.5,440.5h286a5,5,0,0,1,5,5v12a5,5,0,0,1,-5,5h-286a5,5,0,0,1,-5,-5v-12a5,5,0,0,1,5,-5z"></path><g id="node_text22" fill="black"><text id="kity_text_137" text-rendering="inherit" font-size="12" dy=".8em" y="445.5" x="1062.5">运维人员需要理解业务和客户需求才能正确支撑业务</text></g></g><g id="minder_node25" display="none"><g id="node_expander22" style="cursor: pointer;" display="none"><path id="kity_path_259" fill="white" stroke="gray" d="M1062.5,481.5A6,6,0,1,1,1050.5,481.5A6,6,0,1,1,1062.5,481.5"></path><path id="kity_path_260" fill="none" stroke="gray"></path></g><path id="node_outline23" fill="none" stroke="none" d="M1057.5,470.5h358a5,5,0,0,1,5,5v12a5,5,0,0,1,-5,5h-358a5,5,0,0,1,-5,-5v-12a5,5,0,0,1,5,-5z"></path><g id="node_text23" fill="black"><text id="kity_text_139" text-rendering="inherit" font-size="12" dy=".8em" y="475.5" x="1062.5">运维人员创建操作流程并在实践中检验流程是否有效支持业务需要</text></g></g><g id="minder_node26" display="none"><g id="node_expander23" style="cursor: pointer;" display="none"><path id="kity_path_262" fill="white" stroke="gray" d="M1062.5,511.5A6,6,0,1,1,1050.5,511.5A6,6,0,1,1,1062.5,511.5"></path><path id="kity_path_263" fill="none" stroke="gray"></path></g><path id="node_outline24" fill="none" stroke="none" d="M1057.5,500.5h370a5,5,0,0,1,5,5v12a5,5,0,0,1,-5,5h-370a5,5,0,0,1,-5,-5v-12a5,5,0,0,1,5,-5z"></path><g id="node_text24" fill="black"><text id="kity_text_141" text-rendering="inherit" font-size="12" dy=".8em" y="505.5" x="1062.5">运维人员需要通过采集指标来衡量业务需要是否达到要求，得到满足</text></g></g><g id="minder_node27" display="none"><g id="node_expander24" style="cursor: pointer;" display="none"><path id="kity_path_265" fill="white" stroke="gray" d="M1062.5,541.5A6,6,0,1,1,1050.5,541.5A6,6,0,1,1,1062.5,541.5"></path><path id="kity_path_266" fill="none" stroke="gray"></path></g><path id="node_outline25" fill="none" stroke="none" d="M1057.5,530.5h574a5,5,0,0,1,5,5v12a5,5,0,0,1,-5,5h-574a5,5,0,0,1,-5,-5v-12a5,5,0,0,1,5,-5z"></path><g id="node_text25" fill="black"><text id="kity_text_143" text-rendering="inherit" font-size="12" dy=".8em" y="535.5" x="1062.5">业务场景、业务优先级、客户需求会不断发生变化，在变化来临是，需要能够及时调整操作流程以适应改变</text></g></g><g id="minder_node28"><g id="node_expander29" style="cursor: pointer;"><path id="kity_path_280" fill="white" stroke="gray" d="M462.5,607.5A6,6,0,1,1,450.5,607.5A6,6,0,1,1,462.5,607.5"></path><path id="kity_path_281" fill="none" stroke="gray" d="M452,607.5L461,607.5M456.5,603L456.5,612"></path></g><path id="node_outline30" fill="rgb(238, 243, 246)" stroke="rgb(115, 161, 191)" d="M466.5,594.5h105a3,3,0,0,1,3,3v20a3,3,0,0,1,-3,3h-105a3,3,0,0,1,-3,-3v-20a3,3,0,0,1,3,-3z" stroke-width="1"></path><g id="node_text30" fill="black"><text id="kity_text_153" text-rendering="inherit" font-size="14" dy=".8em" y="600.5" x="483.5">6. 心得感想</text></g></g><g id="minder_node29" display="none"><g id="node_expander27" style="cursor: pointer;" display="none"><path id="kity_path_274" fill="white" stroke="gray" d="M614.5,577.5A6,6,0,1,1,602.5,577.5A6,6,0,1,1,614.5,577.5"></path><path id="kity_path_275" fill="none" stroke="gray"></path></g><path id="node_outline28" fill="none" stroke="none" d="M609.5,566.5h2318a5,5,0,0,1,5,5v12a5,5,0,0,1,-5,5h-2318a5,5,0,0,1,-5,-5v-12a5,5,0,0,1,5,-5z" stroke-width="3"></path><g id="node_text28" fill="black"><text id="kity_text_149" text-rendering="inherit" font-size="12" dy=".8em" y="571.5" x="614.5">从持续改进操作流程到当责文化：确保团队熟悉相关的重要流程很重要，但是制定符合实际、具备可操作型的流程更重要，制定安排工作计划时也是。如果流程规范/工作安排不是切实可行的，团队成员默默接受遵循/进行不切实际的流程规范/工作的要求，放弃主动思考流程规范中存在的问题、工作的实际内容合理的工时并提出自己的看法，可以预见的是团队成员将无法遵循规范或按时完成工作，这对团队内当责文化的建立非常不利。</text></g></g><g id="minder_node30" opacity="1" display="none"><g id="node_expander28" style="cursor: pointer;" display="none"><path id="kity_path_277" fill="white" stroke="gray" d="M614.5,607.5A6,6,0,1,1,602.5,607.5A6,6,0,1,1,614.5,607.5"></path><path id="kity_path_278" fill="none" stroke="gray"></path></g><path id="node_outline29" fill="none" stroke="none" d="M609.5,542.5h962a5,5,0,0,1,5,5v120a5,5,0,0,1,-5,5h-962a5,5,0,0,1,-5,-5v-120a5,5,0,0,1,5,-5z" stroke-width="3"></path><g id="node_text29" fill="black"><text id="kity_text_151" text-rendering="inherit" font-size="12" dy=".8em" y="547.5" x="614.5">AWS卓越操作支柱与Google SRE：AWS卓越操作支柱中的设计原则和最佳实践与Google提出的SRE指导思想和最佳实践具有相似性：</text><text id="kity_text_294" text-rendering="inherit" font-size="12" dy=".8em" y="565.5" x="614.5">| AWS架构完善之卓越操作支柱 | Google SRE |</text><text id="kity_text_295" text-rendering="inherit" font-size="12" dy=".8em" y="583.5" x="614.5">| --- | --- |</text><text id="kity_text_296" text-rendering="inherit" font-size="12" dy=".8em" y="601.5" x="614.5">|运维人员需要理解业务和客户需求才能有效、高效支撑业务|制定针对用户的服务质量目标，并且努力去达到这个质量目标|</text><text id="kity_text_297" text-rendering="inherit" font-size="12" dy=".8em" y="619.5" x="614.5">|运维人员创建操作流程并在实践中检验流程是否有效支持业务需要|用超过10年的时间打磨发布流程，并发现好的发布流程具有的一些特征：轻量级、鲁棒性、完整性、可扩展性...|</text><text id="kity_text_298" text-rendering="inherit" font-size="12" dy=".8em" y="637.5" x="614.5">|运维人员需要通过制定、采集指标来衡量目标达成情况|建立全方位的监控与警报系统|</text><text id="kity_text_299" text-rendering="inherit" font-size="12" dy=".8em" y="655.5" x="614.5">|业务场景、业务优先级、客户需求会不断发生变化，在变化来临是，需要能够及时调整操作流程以适应改变|紧急事件响应、紧急事故处理、事后总结哲学|</text></g></g><g id="minder_node31"><g id="node_expander33" style="cursor: pointer;"><path id="kity_path_292" fill="white" stroke="gray" d="M462.5,673.5A6,6,0,1,1,450.5,673.5A6,6,0,1,1,462.5,673.5"></path><path id="kity_path_293" fill="none" stroke="gray" d="M452,673.5L461,673.5M456.5,669L456.5,678"></path></g><path id="node_outline34" fill="rgb(238, 243, 246)" stroke="rgb(115, 161, 191)" d="M466.5,660.5h105a3,3,0,0,1,3,3v20a3,3,0,0,1,-3,3h-105a3,3,0,0,1,-3,-3v-20a3,3,0,0,1,3,-3z" stroke-width="1"></path><g id="node_text34" fill="black"><text id="kity_text_161" text-rendering="inherit" font-size="14" dy=".8em" y="666.5" x="483.5">7. 参考链接</text></g></g><g id="minder_node32" display="none"><g id="node_expander30" style="cursor: pointer;" display="none"><path id="kity_path_283" fill="white" stroke="gray" d="M614.5,613.5A6,6,0,1,1,602.5,613.5A6,6,0,1,1,614.5,613.5"></path><path id="kity_path_284" fill="none" stroke="gray"></path></g><path id="node_outline31" fill="none" stroke="none" d="M609.5,602.5h573a5,5,0,0,1,5,5v12a5,5,0,0,1,-5,5h-573a5,5,0,0,1,-5,-5v-12a5,5,0,0,1,5,-5z"></path><g id="node_text31" fill="black"><text id="kity_text_155" text-rendering="inherit" font-size="12" dy=".8em" y="607.5" x="614.5">https://d1.awsstatic-china.com/whitepapers/architecture/AWS-Operational-Excellence-Pillar.pdf</text></g></g><g id="minder_node33" display="none"><g id="node_expander31" style="cursor: pointer;" display="none"><path id="kity_path_286" fill="white" stroke="gray" d="M614.5,643.5A6,6,0,1,1,602.5,643.5A6,6,0,1,1,614.5,643.5"></path><path id="kity_path_287" fill="none" stroke="gray"></path></g><path id="node_outline32" fill="none" stroke="none" d="M609.5,632.5h393a5,5,0,0,1,5,5v12a5,5,0,0,1,-5,5h-393a5,5,0,0,1,-5,-5v-12a5,5,0,0,1,5,-5z"></path><g id="node_text32" fill="black"><text id="kity_text_157" text-rendering="inherit" font-size="12" dy=".8em" y="637.5" x="614.5">https://amazonaws-china.com/cn/architecture/well-architected/</text></g></g><g id="minder_node34" display="none"><g id="node_expander32" style="cursor: pointer;" display="none"><path id="kity_path_289" fill="white" stroke="gray" d="M614.5,673.5A6,6,0,1,1,602.5,673.5A6,6,0,1,1,614.5,673.5"></path><path id="kity_path_290" fill="none" stroke="gray"></path></g><path id="node_outline33" fill="none" stroke="none" d="M609.5,662.5h583a5,5,0,0,1,5,5v12a5,5,0,0,1,-5,5h-583a5,5,0,0,1,-5,-5v-12a5,5,0,0,1,5,-5z"></path><g id="node_text33" fill="black"><text id="kity_text_159" text-rendering="inherit" font-size="12" dy=".8em" y="667.5" x="614.5">https://amazonaws-china.com/cn/blogs/apn/the-5-pillars-of-the-aws-well-architected-framework/</text></g></g><g id="kity_g_12" display="none"><path id="kity_path_13" fill="none" stroke="rgb(66, 94, 112)" d="M619.5,570.5h2318a5,5,0,0,1,5,5v12a5,5,0,0,1,-5,5h-2318a5,5,0,0,1,-5,-5v-12a5,5,0,0,1,5,-5z" stroke-width="5"></path></g><g id="minder_node6" display="none"><g id="node_expander3" style="cursor: pointer;" display="none"><path id="kity_path_202" fill="white" stroke="gray" d="M762.5,-66.5A6,6,0,1,1,750.5,-66.5A6,6,0,1,1,762.5,-66.5"></path><path id="kity_path_203" fill="none" stroke="gray" d="M752,-66.5L761,-66.5M756.5,-71L756.5,-62"></path></g><path id="node_outline4" fill="none" stroke="none" d="M757.5,-77.5h106a5,5,0,0,1,5,5v12a5,5,0,0,1,-5,5h-106a5,5,0,0,1,-5,-5v-12a5,5,0,0,1,5,-5z" stroke-width="3"></path><g id="node_text4" fill="black"><text id="kity_text_101" text-rendering="inherit" font-size="12" dy=".8em" y="-72.5" x="762.5">使用代码进行操作</text></g></g><g id="minder_node7" display="none"><g id="node_expander4" style="cursor: pointer;" display="none"><path id="kity_path_205" fill="white" stroke="gray" d="M762.5,-36.5A6,6,0,1,1,750.5,-36.5A6,6,0,1,1,762.5,-36.5"></path><path id="kity_path_206" fill="none" stroke="gray" d="M752,-36.5L761,-36.5M756.5,-41L756.5,-32"></path></g><path id="node_outline5" fill="none" stroke="none" d="M757.5,-47.5h82a5,5,0,0,1,5,5v12a5,5,0,0,1,-5,5h-82a5,5,0,0,1,-5,-5v-12a5,5,0,0,1,5,-5z" stroke-width="3"></path><g id="node_text5" fill="black"><text id="kity_text_103" text-rendering="inherit" font-size="12" dy=".8em" y="-42.5" x="762.5">为文档做注释</text></g></g><g id="minder_node8" display="none"><g id="node_expander5" style="cursor: pointer;" display="none"><path id="kity_path_208" fill="white" stroke="gray" d="M762.5,-6.5A6,6,0,1,1,750.5,-6.5A6,6,0,1,1,762.5,-6.5"></path><path id="kity_path_209" fill="none" stroke="gray" d="M752,-6.5L761,-6.5M756.5,-11L756.5,-2"></path></g><path id="node_outline6" fill="none" stroke="none" d="M757.5,-17.5h166a5,5,0,0,1,5,5v12a5,5,0,0,1,-5,5h-166a5,5,0,0,1,-5,-5v-12a5,5,0,0,1,5,-5z" stroke-width="3"></path><g id="node_text6" fill="black"><text id="kity_text_105" text-rendering="inherit" font-size="12" dy=".8em" y="-12.5" x="762.5">进行高频、小型、可逆的变更</text></g></g><g id="minder_node9" display="none"><g id="node_expander6" style="cursor: pointer;" display="none"><path id="kity_path_211" fill="white" stroke="gray" d="M762.5,23.5A6,6,0,1,1,750.5,23.5A6,6,0,1,1,762.5,23.5"></path><path id="kity_path_212" fill="none" stroke="gray" d="M752,23.5L761,23.5M756.5,19L756.5,28"></path></g><path id="node_outline7" fill="none" stroke="none" d="M757.5,12.5h106a5,5,0,0,1,5,5v12a5,5,0,0,1,-5,5h-106a5,5,0,0,1,-5,-5v-12a5,5,0,0,1,5,-5z" stroke-width="3"></path><g id="node_text7" fill="black"><text id="kity_text_107" text-rendering="inherit" font-size="12" dy=".8em" y="17.5" x="762.5">持续改进变更流程</text></g></g><g id="minder_node10" display="none"><g id="node_expander7" style="cursor: pointer;" display="none"><path id="kity_path_214" fill="white" stroke="gray" d="M762.5,53.5A6,6,0,1,1,750.5,53.5A6,6,0,1,1,762.5,53.5"></path><path id="kity_path_215" fill="none" stroke="gray" d="M752,53.5L761,53.5M756.5,49L756.5,58"></path></g><path id="node_outline8" fill="none" stroke="none" d="M757.5,42.5h94a5,5,0,0,1,5,5v12a5,5,0,0,1,-5,5h-94a5,5,0,0,1,-5,-5v-12a5,5,0,0,1,5,-5z" stroke-width="3"></path><g id="node_text8" fill="black"><text id="kity_text_109" text-rendering="inherit" font-size="12" dy=".8em" y="47.5" x="762.5">预见错误的发生</text></g></g><g id="minder_node11" display="none"><g id="node_expander8" style="cursor: pointer;" display="none"><path id="kity_path_217" fill="white" stroke="gray" d="M762.5,83.5A6,6,0,1,1,750.5,83.5A6,6,0,1,1,762.5,83.5"></path><path id="kity_path_218" fill="none" stroke="gray" d="M752,83.5L761,83.5M756.5,79L756.5,88"></path></g><path id="node_outline9" fill="none" stroke="none" d="M757.5,72.5h130a5,5,0,0,1,5,5v12a5,5,0,0,1,-5,5h-130a5,5,0,0,1,-5,-5v-12a5,5,0,0,1,5,-5z" stroke-width="3"></path><g id="node_text9" fill="black"><text id="kity_text_111" text-rendering="inherit" font-size="12" dy=".8em" y="77.5" x="762.5">从所有操作错误中学习</text></g></g><g id="minder_node47" display="none"><g id="node_expander46" style="cursor: pointer;" display="none"><path id="kity_path_414" fill="white" stroke="gray" d="M802.5,-66.5A6,6,0,1,1,790.5,-66.5A6,6,0,1,1,802.5,-66.5"></path><path id="kity_path_415" fill="none" stroke="gray"></path></g><path id="node_outline47" fill="none" stroke="none" d="M797.5,-77.5h598a5,5,0,0,1,5,5v12a5,5,0,0,1,-5,5h-598a5,5,0,0,1,-5,-5v-12a5,5,0,0,1,5,-5z" stroke-width="3"></path><g id="node_text47" fill="black"><text id="kity_text_411" text-rendering="inherit" font-size="12" dy=".8em" y="-72.5" x="802.5">应用基础设施即代码、使用代码进行变更、使用代码响应事件，减少人为操作失误导致的失败，快速响应事件。</text></g></g><g id="minder_node48" display="none"><g id="node_expander47" style="cursor: pointer;" display="none"><path id="kity_path_422" fill="white" stroke="gray" d="M802.5,-36.5A6,6,0,1,1,790.5,-36.5A6,6,0,1,1,802.5,-36.5"></path><path id="kity_path_423" fill="none" stroke="gray"></path></g><path id="node_outline48" fill="none" stroke="none" d="M797.5,-47.5h730a5,5,0,0,1,5,5v12a5,5,0,0,1,-5,5h-730a5,5,0,0,1,-5,-5v-12a5,5,0,0,1,5,-5z" stroke-width="3"></path><g id="node_text48" fill="black"><text id="kity_text_419" text-rendering="inherit" font-size="12" dy=".8em" y="-42.5" x="802.5">手工创建文档时自动生成注释、每次构建时自动生成注释文档，注释文档能够被人或系统使用（作为操作代码的输入），具体应用场景？</text></g></g><g id="minder_node49" display="none"><g id="node_expander48" style="cursor: pointer;" display="none"><path id="kity_path_430" fill="white" stroke="gray" d="M802.5,-6.5A6,6,0,1,1,790.5,-6.5A6,6,0,1,1,802.5,-6.5"></path><path id="kity_path_431" fill="none" stroke="gray"></path></g><path id="node_outline49" fill="none" stroke="none" d="M797.5,-17.5h826a5,5,0,0,1,5,5v12a5,5,0,0,1,-5,5h-826a5,5,0,0,1,-5,-5v-12a5,5,0,0,1,5,-5z" stroke-width="3"></path><g id="node_text49" fill="black"><text id="kity_text_427" text-rendering="inherit" font-size="12" dy=".8em" y="-12.5" x="802.5">代码尽快入库、入库的代码尽快上线生产环境，尽可能保证一次变更的变更内容单一，从而提高变更成功率、缩短变更时长、缩短变更失败回退所需时长。</text></g></g><g id="minder_node50" display="none"><g id="node_expander49" style="cursor: pointer;" display="none"><path id="kity_path_438" fill="white" stroke="gray" d="M802.5,23.5A6,6,0,1,1,790.5,23.5A6,6,0,1,1,802.5,23.5"></path><path id="kity_path_439" fill="none" stroke="gray"></path></g><path id="node_outline50" fill="none" stroke="none" d="M797.5,12.5h718a5,5,0,0,1,5,5v12a5,5,0,0,1,-5,5h-718a5,5,0,0,1,-5,-5v-12a5,5,0,0,1,5,-5z" stroke-width="3"></path><g id="node_text50" fill="black"><text id="kity_text_435" text-rendering="inherit" font-size="12" dy=".8em" y="17.5" x="802.5">在操作过程中注意不足之处，寻找能够改进的地方，确定一个固定的时间对操作流程进行回顾、讨论、完善，确保团队熟悉这个过程。</text></g></g><g id="minder_node51" display="none"><g id="node_expander50" style="cursor: pointer;" display="none"><path id="kity_path_446" fill="white" stroke="gray" d="M802.5,53.5A6,6,0,1,1,790.5,53.5A6,6,0,1,1,802.5,53.5"></path><path id="kity_path_447" fill="none" stroke="gray" d="M792,53.5L801,53.5"></path></g><path id="node_outline51" fill="none" stroke="none" d="M797.5,42.5h994a5,5,0,0,1,5,5v12a5,5,0,0,1,-5,5h-994a5,5,0,0,1,-5,-5v-12a5,5,0,0,1,5,-5z" stroke-width="3"></path><g id="node_text51" fill="black"><text id="kity_text_443" text-rendering="inherit" font-size="12" dy=".8em" y="47.5" x="802.5">即提前进行故障场景梳理，分析影响，并制定必要的应急响应预案，确定一个固定的时间（“竞赛日活动”）进行运维演练，检验响应预案的有效性以及团队是否具足够的故障响应能力。</text></g></g><g id="minder_node53" display="none"><g id="node_expander52" style="cursor: pointer;" display="none"><path id="kity_path_462" fill="white" stroke="gray" d="M802.5,83.5A6,6,0,1,1,790.5,83.5A6,6,0,1,1,802.5,83.5"></path><path id="kity_path_463" fill="none" stroke="gray"></path></g><path id="node_outline53" fill="none" stroke="none" d="M797.5,72.5h538a5,5,0,0,1,5,5v12a5,5,0,0,1,-5,5h-538a5,5,0,0,1,-5,-5v-12a5,5,0,0,1,5,-5z" stroke-width="3"></path><g id="node_text53" fill="black"><text id="kity_text_459" text-rendering="inherit" font-size="12" dy=".8em" y="77.5" x="802.5">从所有操作事件和失败中汲取经验来推动改进，将经验在团队内部，以及整个组织范围内进行分享。</text></g></g><g id="minder_node54" display="none"><g id="node_expander53" style="cursor: pointer;" display="none"><path id="kity_path_470" fill="white" stroke="gray" d="M726.5,145.5A6,6,0,1,1,714.5,145.5A6,6,0,1,1,726.5,145.5"></path><path id="kity_path_471" fill="none" stroke="gray"></path></g><path id="node_outline54" fill="none" stroke="none" d="M721.5,35.5h1678a5,5,0,0,1,5,5v210a5,5,0,0,1,-5,5h-1678a5,5,0,0,1,-5,-5v-210a5,5,0,0,1,5,-5z" stroke-width="3"></path><g id="node_text54" fill="black"><text id="kity_text_467" text-rendering="inherit" font-size="12" dy=".8em" y="40.5" x="726.5">团队内处理问题时有必要对问题优先级进行讨论，建立共识。这样能够大大减少因认识不统一，目标不统一导致的团队内冲突。</text><text id="kity_text_472" text-rendering="inherit" font-size="12" dy=".8em" y="58.5" x="726.5"></text><text id="kity_text_473" text-rendering="inherit" font-size="12" dy=".8em" y="76.5" x="726.5"></text><text id="kity_text_474" text-rendering="inherit" font-size="12" dy=".8em" y="94.5" x="726.5">举个例子，实现运维需求时，需要根据业务要求对需求进行排序，如果我们把运维的需求划分为两大类：</text><text id="kity_text_475" text-rendering="inherit" font-size="12" dy=".8em" y="112.5" x="726.5">* 第一类：对系统发布速度有提升的需求</text><text id="kity_text_476" text-rendering="inherit" font-size="12" dy=".8em" y="130.5" x="726.5">* 第二类：对系统可靠性有提升的需求</text><text id="kity_text_477" text-rendering="inherit" font-size="12" dy=".8em" y="148.5" x="726.5"></text><text id="kity_text_478" text-rendering="inherit" font-size="12" dy=".8em" y="166.5" x="726.5"></text><text id="kity_text_479" text-rendering="inherit" font-size="12" dy=".8em" y="184.5" x="726.5">如果客户希望能够快速看到运行起来的系统原型，对于可靠性要求暂时不高时，那么可以适当地把第一类运维需求的优先级提高，以快速迭代交付新的演示功能；反之，若是在服务已公测或商用，使用者数目较大时，则需要优先实现第二类运维需求，提高系统可靠性，确保SLA达成。</text><text id="kity_text_480" text-rendering="inherit" font-size="12" dy=".8em" y="202.5" x="726.5"></text><text id="kity_text_481" text-rendering="inherit" font-size="12" dy=".8em" y="220.5" x="726.5"></text><text id="kity_text_482" text-rendering="inherit" font-size="12" dy=".8em" y="238.5" x="726.5">再举个例子，当on-call接收到现网事件时，对于用户报障类的问题，应该优先考虑恢复，而后再进行定位问题。如果是开发兼任on-call，而不是训练有素的专业on-call，很可能会习惯性地花费大量时间定位根因。这样客户可能会不满意，客户迫切想要的可能是快速规避问题，恢复业务，减少损失，降低名誉伤害。</text></g></g><g id="minder_node55" display="none"><g id="node_expander54" style="cursor: pointer;" display="none"><path id="kity_path_490" fill="white" stroke="gray" d="M750.5,197.5A6,6,0,1,1,738.5,197.5A6,6,0,1,1,750.5,197.5"></path><path id="kity_path_491" fill="none" stroke="gray"></path></g><path id="node_outline55" fill="none" stroke="none" d="M745.5,132.5h1152a5,5,0,0,1,5,5v120a5,5,0,0,1,-5,5h-1152a5,5,0,0,1,-5,-5v-120a5,5,0,0,1,5,-5z" stroke-width="3"></path><g id="node_text55" fill="black"><text id="kity_text_487" text-rendering="inherit" font-size="12" dy=".8em" y="137.5" x="750.5">AWS建议在设计工作负载时，就考虑把部署、变更、监控，告警纳入考虑。这些领域主要包括：基础设施即代码，持续集成与持续部署，监控，告警，分布式追踪等。</text><text id="kity_text_492" text-rendering="inherit" font-size="12" dy=".8em" y="155.5" x="750.5"></text><text id="kity_text_493" text-rendering="inherit" font-size="12" dy=".8em" y="173.5" x="750.5"></text><text id="kity_text_494" text-rendering="inherit" font-size="12" dy=".8em" y="191.5" x="750.5">相关的AWS服务：AWS CloudFormation，AWS Developer Tools（AWS CodeCommit、AWS CodeBuild, AWS CodePipeline，AWS CodeDeploy, and AWS CodeStar），AWS CloudWatch，AWS X-Ray…</text><text id="kity_text_495" text-rendering="inherit" font-size="12" dy=".8em" y="209.5" x="750.5"></text><text id="kity_text_496" text-rendering="inherit" font-size="12" dy=".8em" y="227.5" x="750.5"></text><text id="kity_text_497" text-rendering="inherit" font-size="12" dy=".8em" y="245.5" x="750.5">有经验丰富的SRE或是擅长CICD工程师在服务孵化的早期就参与进来，对于服务卓越操作目标的达成将非常有帮助。</text></g></g><g id="minder_node56" display="none"><g id="node_expander55" style="cursor: pointer;" display="none"><path id="kity_path_504" fill="white" stroke="gray" d="M738.5,249.5A6,6,0,1,1,726.5,249.5A6,6,0,1,1,738.5,249.5"></path><path id="kity_path_505" fill="none" stroke="gray"></path></g><path id="node_outline56" fill="none" stroke="none" d="M733.5,157.5h2174a5,5,0,0,1,5,5v174a5,5,0,0,1,-5,5h-2174a5,5,0,0,1,-5,-5v-174a5,5,0,0,1,5,-5z" stroke-width="3"></path><g id="node_text56" fill="black"><text id="kity_text_501" text-rendering="inherit" font-size="12" dy=".8em" y="162.5" x="738.5">阅读过《Google SRE运维解密》这本书的同学，看到这个小标题时一定联想到到了书中提出的PRR模型吧！PRR（Pilot Readiness Review，试点准备度评估）模型是Google提出的用于评估一个系统的运维能力是否满足上线生产环境的要求的模型。</text><text id="kity_text_506" text-rendering="inherit" font-size="12" dy=".8em" y="180.5" x="738.5"></text><text id="kity_text_507" text-rendering="inherit" font-size="12" dy=".8em" y="198.5" x="738.5"></text><text id="kity_text_508" text-rendering="inherit" font-size="12" dy=".8em" y="216.5" x="738.5">回顾一下，这个模型都讲了些什么呢？其实就是一份Checklist，比如：服务的架构设计是否满足规范、基础组件的选型是否使用公司内部基础设施工程部提供的标准的公共组件、可靠性（系统可靠性，数据可靠性，运维可靠性，可靠性管理）是否满足要求、可运维能力（监控，告警，日志采集，调用链能力是否具备）、基于业务场景的故障梳理，进行运维演练，测试故障处理流程，应急响应预案是否有效…</text><text id="kity_text_509" text-rendering="inherit" font-size="12" dy=".8em" y="234.5" x="738.5"></text><text id="kity_text_510" text-rendering="inherit" font-size="12" dy=".8em" y="252.5" x="738.5"></text><text id="kity_text_511" text-rendering="inherit" font-size="12" dy=".8em" y="270.5" x="738.5">不在这个模型里的一点应该是对处理事件的人员进行培训，确保他们具备足够的知识和技能。</text><text id="kity_text_512" text-rendering="inherit" font-size="12" dy=".8em" y="288.5" x="738.5"></text><text id="kity_text_513" text-rendering="inherit" font-size="12" dy=".8em" y="306.5" x="738.5"></text><text id="kity_text_514" text-rendering="inherit" font-size="12" dy=".8em" y="324.5" x="738.5">相关的AWS服务：AWS Config（配置基线话，如果更改了配置导致系统故障，能够快速回退到上一份正确的配置，快速恢复环境），AWS System Manager</text></g></g><g id="minder_node57" display="none"><g id="node_expander56" style="cursor: pointer;" display="none"><path id="kity_path_521" fill="white" stroke="gray" d="M738.5,311.5A6,6,0,1,1,726.5,311.5A6,6,0,1,1,738.5,311.5"></path><path id="kity_path_522" fill="none" stroke="gray"></path></g><path id="node_outline57" fill="none" stroke="none" d="M733.5,273.5h1224a5,5,0,0,1,5,5v66a5,5,0,0,1,-5,5h-1224a5,5,0,0,1,-5,-5v-66a5,5,0,0,1,5,-5z" stroke-width="3"></path><g id="node_text57" fill="black"><text id="kity_text_518" text-rendering="inherit" font-size="12" dy=".8em" y="278.5" x="738.5">一次成功的操作代表新的配置生效了，或者新的特性上线了，并且原有的和新增的拨测用例都还能执行成功。AWS建议通过定义明确的业务和技术指标，并把它们呈现在看板上，以便在操作失败时快速得到反馈，并及时作出响应。</text><text id="kity_text_523" text-rendering="inherit" font-size="12" dy=".8em" y="296.5" x="738.5"></text><text id="kity_text_524" text-rendering="inherit" font-size="12" dy=".8em" y="314.5" x="738.5"></text><text id="kity_text_525" text-rendering="inherit" font-size="12" dy=".8em" y="332.5" x="738.5">相关的AWS服务：Cloud Watch Log/Event，Personal Health Dashboard，Service Health Dashboard，AWS Elastic Search。</text></g></g><g id="minder_node58" display="none"><g id="node_expander57" style="cursor: pointer;" display="none"><path id="kity_path_532" fill="white" stroke="gray" d="M714.5,363.5A6,6,0,1,1,702.5,363.5A6,6,0,1,1,714.5,363.5"></path><path id="kity_path_533" fill="none" stroke="gray"></path></g><path id="node_outline58" fill="none" stroke="none" d="M709.5,298.5h1817a5,5,0,0,1,5,5v120a5,5,0,0,1,-5,5h-1817a5,5,0,0,1,-5,-5v-120a5,5,0,0,1,5,-5z" stroke-width="3"></path><g id="node_text58" fill="black"><text id="kity_text_529" text-rendering="inherit" font-size="12" dy=".8em" y="303.5" x="714.5">这部分谈论的是事件管理费流程。事件分类，预料的和未预料的。处理事件需要依据一个不断完善的事件处理流程。这个流程需要保证事件的处理进展和问题影响能够及时地同步到关心事件的相关团队，处理阻塞时要分层上升，以便请求更强的资源帮助问题解决！问题解决要追求根因分析，从源头上解决问题，避免再次出现相同的问题。</text><text id="kity_text_534" text-rendering="inherit" font-size="12" dy=".8em" y="321.5" x="714.5"></text><text id="kity_text_535" text-rendering="inherit" font-size="12" dy=".8em" y="339.5" x="714.5"></text><text id="kity_text_536" text-rendering="inherit" font-size="12" dy=".8em" y="357.5" x="714.5">相关的AWS服务：AWS提供了一些服务能够监控某些事件的发生（Cloud Watch），配置规则（Cloud Watch Rules），触发目标服务（Cloud Watch Target）执行预定义的操作（Cloud Watch Event）作为响应，比如：发送短讯通知（SNS），执行Lambda函数（AWS Lambda），执行EC2实例任务，自动伸缩动作（Auto Scaling）</text><text id="kity_text_537" text-rendering="inherit" font-size="12" dy=".8em" y="375.5" x="714.5"></text><text id="kity_text_538" text-rendering="inherit" font-size="12" dy=".8em" y="393.5" x="714.5"></text><text id="kity_text_539" text-rendering="inherit" font-size="12" dy=".8em" y="411.5" x="714.5">另外，AWS也对一些第三方的监控，数据处理软件提供了支持，能够把数据通过API发送给第三方应用。</text></g></g><g id="minder_node59" display="none"><g id="node_expander58" style="cursor: pointer;" display="none"><path id="kity_path_546" fill="white" stroke="gray" d="M738.5,425.5A6,6,0,1,1,726.5,425.5A6,6,0,1,1,738.5,425.5"></path><path id="kity_path_547" fill="none" stroke="gray"></path></g><path id="node_outline59" fill="none" stroke="none" d="M733.5,360.5h1133a5,5,0,0,1,5,5v120a5,5,0,0,1,-5,5h-1133a5,5,0,0,1,-5,-5v-120a5,5,0,0,1,5,-5z" stroke-width="3"></path><g id="node_text59" fill="black"><text id="kity_text_543" text-rendering="inherit" font-size="12" dy=".8em" y="365.5" x="738.5">定期分析失败用例，并从中学习，避免团队，或者所处的更大的项目组避免重蹈覆辙，这是非常有意义的。</text><text id="kity_text_548" text-rendering="inherit" font-size="12" dy=".8em" y="383.5" x="738.5"></text><text id="kity_text_549" text-rendering="inherit" font-size="12" dy=".8em" y="401.5" x="738.5"></text><text id="kity_text_550" text-rendering="inherit" font-size="12" dy=".8em" y="419.5" x="738.5">AWS能够帮助聚合操作活动，工作负载，或者基础设施的日志（CLOUD WATCH），并提供相关的工具帮助分析我们的操作，趋势或者不同系统在不同配置下对操作的响应结果，基于此，我们能够分析计划改进。</text><text id="kity_text_551" text-rendering="inherit" font-size="12" dy=".8em" y="437.5" x="738.5"></text><text id="kity_text_552" text-rendering="inherit" font-size="12" dy=".8em" y="455.5" x="738.5"></text><text id="kity_text_553" text-rendering="inherit" font-size="12" dy=".8em" y="473.5" x="738.5">相关的AWS服务：Amazon QuickSight，Amazon Athena，Amazon S3，Amazon CloudWatch</text></g></g><g id="minder_node60" display="none"><g id="node_expander59" style="cursor: pointer;" display="none"><path id="kity_path_560" fill="white" stroke="gray" d="M738.5,477.5A6,6,0,1,1,726.5,477.5A6,6,0,1,1,738.5,477.5"></path><path id="kity_path_561" fill="none" stroke="gray"></path></g><path id="node_outline60" fill="none" stroke="none" d="M733.5,439.5h976a5,5,0,0,1,5,5v66a5,5,0,0,1,-5,5h-976a5,5,0,0,1,-5,-5v-66a5,5,0,0,1,5,-5z" stroke-width="3"></path><g id="node_text60" fill="black"><text id="kity_text_557" text-rendering="inherit" font-size="12" dy=".8em" y="444.5" x="738.5">在团队内、不同团队间、组织内分享文档，标准的基础设施模板，有需要时可对分享的资源设置必要的访问权限。</text><text id="kity_text_562" text-rendering="inherit" font-size="12" dy=".8em" y="462.5" x="738.5"></text><text id="kity_text_563" text-rendering="inherit" font-size="12" dy=".8em" y="480.5" x="738.5"></text><text id="kity_text_564" text-rendering="inherit" font-size="12" dy=".8em" y="498.5" x="738.5">相关的AWS服务：AWS Identity and Access Management，Amazon SNS，AWS CodeCommit，AWS Lambda，AWS CloudFormation，Amazon Machine Images（AMI）</text></g></g></g></g></svg>